<svg width="31" height="26" viewBox="0 0 31 26" fill="none" xmlns="http://www.w3.org/2000/svg">
<path d="M22.2724 9.52637V21.6673C22.2724 23.1344 21.083 24.3237 19.616 24.3237H3.65339C2.18633 24.3237 1 23.1344 1 21.6673V9.52637H22.2724Z" fill="white"/>
<path d="M22.2724 5.70514V9.52674H1V5.70514C1 4.23808 2.18633 3.05176 3.65339 3.05176H19.616C21.083 3.05176 22.2724 4.23808 22.2724 5.70514Z" fill="#0E60BF"/>
<path d="M22.2724 9.52674V21.6677C22.2724 23.1348 21.083 24.3241 19.616 24.3241H3.65339C2.18633 24.3241 1 23.1348 1 21.6677V5.70514C1 4.23808 2.18633 3.05176 3.65339 3.05176H19.616C21.083 3.05176 22.2724 4.23808 22.2724 5.70514V9.52674Z" stroke="#402318" stroke-width="0.905593" stroke-linecap="round" stroke-linejoin="round"/>
<path d="M1 9.52637H22.2724" stroke="#402318" stroke-width="0.905593" stroke-linecap="round" stroke-linejoin="round"/>
<path d="M4.74909 1H4.59816C4.09801 1 3.69257 1.40545 3.69257 1.90559V4.01864C3.69257 4.51879 4.09801 4.92423 4.59816 4.92423H4.74909C5.24924 4.92423 5.65468 4.51879 5.65468 4.01864V1.90559C5.65468 1.40545 5.24924 1 4.74909 1Z" fill="#45484D" stroke="#402318" stroke-width="0.905593" stroke-linecap="round" stroke-linejoin="round"/>
<path d="M9.39158 1H9.24065C8.7405 1 8.33505 1.40545 8.33505 1.90559V4.01864C8.33505 4.51879 8.7405 4.92423 9.24065 4.92423H9.39158C9.89172 4.92423 10.2972 4.51879 10.2972 4.01864V1.90559C10.2972 1.40545 9.89172 1 9.39158 1Z" fill="#45484D" stroke="#402318" stroke-width="0.905593" stroke-linecap="round" stroke-linejoin="round"/>
<path d="M14.0315 1H13.8805C13.3804 1 12.9749 1.40545 12.9749 1.90559V4.01864C12.9749 4.51879 13.3804 4.92423 13.8805 4.92423H14.0315C14.5316 4.92423 14.9371 4.51879 14.9371 4.01864V1.90559C14.9371 1.40545 14.5316 1 14.0315 1Z" fill="#45484D" stroke="#402318" stroke-width="0.905593" stroke-linecap="round" stroke-linejoin="round"/>
<path d="M18.674 1H18.5231C18.0229 1 17.6175 1.40545 17.6175 1.90559V4.01864C17.6175 4.51879 18.0229 4.92423 18.5231 4.92423H18.674C19.1741 4.92423 19.5796 4.51879 19.5796 4.01864V1.90559C19.5796 1.40545 19.1741 1 18.674 1Z" fill="#45484D" stroke="#402318" stroke-width="0.905593" stroke-linecap="round" stroke-linejoin="round"/>
<path d="M3.98233 12.4854H5.82068" stroke="#402318" stroke-width="0.905593" stroke-linecap="round" stroke-linejoin="round"/>
<path d="M3.98233 15.4473H5.82068" stroke="#402318" stroke-width="0.905593" stroke-linecap="round" stroke-linejoin="round"/>
<path d="M3.98233 18.4053H5.82068" stroke="#402318" stroke-width="0.905593" stroke-linecap="round" stroke-linejoin="round"/>
<path d="M3.98233 21.3662H5.82068" stroke="#402318" stroke-width="0.905593" stroke-linecap="round" stroke-linejoin="round"/>
<path d="M8.47107 12.4854H10.3094" stroke="#402318" stroke-width="0.905593" stroke-linecap="round" stroke-linejoin="round"/>
<path d="M8.47107 15.4473H10.3094" stroke="#402318" stroke-width="0.905593" stroke-linecap="round" stroke-linejoin="round"/>
<path d="M8.47107 18.4053H10.3094" stroke="#402318" stroke-width="0.905593" stroke-linecap="round" stroke-linejoin="round"/>
<path d="M8.47107 21.3662H10.3094" stroke="#402318" stroke-width="0.905593" stroke-linecap="round" stroke-linejoin="round"/>
<path d="M12.9598 12.4854H14.8012" stroke="#402318" stroke-width="0.905593" stroke-linecap="round" stroke-linejoin="round"/>
<path d="M12.9598 15.4473H14.8012" stroke="#402318" stroke-width="0.905593" stroke-linecap="round" stroke-linejoin="round"/>
<path d="M12.9598 18.4053H14.8012" stroke="#402318" stroke-width="0.905593" stroke-linecap="round" stroke-linejoin="round"/>
<path d="M12.9598 21.3662H14.8012" stroke="#402318" stroke-width="0.905593" stroke-linecap="round" stroke-linejoin="round"/>
<path d="M17.4485 12.4854H19.2899" stroke="#402318" stroke-width="0.905593" stroke-linecap="round" stroke-linejoin="round"/>
<path d="M17.4485 15.4473H19.2899" stroke="#402318" stroke-width="0.905593" stroke-linecap="round" stroke-linejoin="round"/>
<path d="M17.4485 18.4053H19.2899" stroke="#402318" stroke-width="0.905593" stroke-linecap="round" stroke-linejoin="round"/>
<path d="M17.4485 21.3662H19.2899" stroke="#402318" stroke-width="0.905593" stroke-linecap="round" stroke-linejoin="round"/>
<path d="M27.06 10.6261V11.4744H19.3564V10.6261C19.3564 10.0194 19.8514 9.52734 20.4582 9.52734H25.9582C26.5649 9.52734 27.0569 10.0194 27.0569 10.6261H27.06Z" fill="#45484D"/>
<path d="M23.208 12.8242C26.2145 12.8242 28.6536 15.2603 28.6536 18.2698C28.6536 21.2794 26.2145 23.7155 23.208 23.7155C20.2014 23.7155 17.7623 21.2764 17.7623 18.2698C17.7623 15.2633 20.1984 12.8242 23.208 12.8242Z" fill="white"/>
<path d="M30 12.0541V24.4849C30 24.8018 29.7404 25.0614 29.4235 25.0614H16.9927C16.6757 25.0614 16.4161 24.8018 16.4161 24.4849V12.0541C16.4161 11.7371 16.6757 11.4775 16.9927 11.4775H29.4235C29.7404 11.4775 30 11.7371 30 12.0541ZM28.6537 18.2695C28.6537 15.2629 26.2147 12.8239 23.2081 12.8239C20.2015 12.8239 17.7625 15.2599 17.7625 18.2695C17.7625 21.2791 20.1985 23.7151 23.2081 23.7151C26.2177 23.7151 28.6537 21.2761 28.6537 18.2695Z" fill="#0870D9"/>
<path d="M27.0599 11.4746H29.4235C29.7404 11.4746 30 11.7342 30 12.0512V24.4819C30 24.7989 29.7404 25.0585 29.4235 25.0585H16.9927C16.6757 25.0585 16.4161 24.7989 16.4161 24.4819V12.0542C16.4161 11.7372 16.6757 11.4776 16.9927 11.4776H27.0599V11.4746Z" stroke="#402318" stroke-width="0.905593" stroke-linecap="round" stroke-linejoin="round"/>
<path d="M28.6536 18.2669C28.6536 21.2765 26.2145 23.7125 23.208 23.7125C20.2014 23.7125 17.7623 21.2735 17.7623 18.2669C17.7623 15.2604 20.1984 12.8213 23.208 12.8213C26.2175 12.8213 28.6536 15.2573 28.6536 18.2669Z" stroke="#402318" stroke-width="0.905593" stroke-linecap="round" stroke-linejoin="round"/>
<path d="M23.208 13.7568V14.2398" stroke="#402318" stroke-width="0.905593" stroke-linecap="round" stroke-linejoin="round"/>
<path d="M18.6982 18.2666H19.1812" stroke="#402318" stroke-width="0.905593" stroke-linecap="round" stroke-linejoin="round"/>
<path d="M23.208 22.7759V22.2959" stroke="#402318" stroke-width="0.905593" stroke-linecap="round" stroke-linejoin="round"/>
<path d="M27.7179 18.2666H27.2349" stroke="#402318" stroke-width="0.905593" stroke-linecap="round" stroke-linejoin="round"/>
<path d="M23.208 15.5596V18.2673L24.2494 19.3087" stroke="#402318" stroke-width="0.905593" stroke-linecap="round" stroke-linejoin="round"/>
<path d="M19.3564 11.4744V10.6261C19.3564 10.0194 19.8514 9.52734 20.4582 9.52734H25.9582C26.5649 9.52734 27.0569 10.0194 27.0569 10.6261V11.4744" stroke="#402318" stroke-width="0.905593" stroke-linecap="round" stroke-linejoin="round"/>
</svg>
