<svg width="41" height="40" viewBox="0 0 41 40" fill="none" xmlns="http://www.w3.org/2000/svg">
<path d="M34.8369 22.3945L35.2323 22.149C35.0779 22.0516 34.9531 21.9078 34.8844 21.7278L34.8469 21.6291C34.8382 21.6062 34.8319 21.5833 34.8254 21.5602L34.5782 21.7137L34.8369 22.3945Z" fill="#2254D3"/>
<path d="M36.0258 22.2371L36.9039 21.9246C37.2868 21.7885 37.5244 21.418 37.4806 21.0262L37.455 20.7982C37.4233 20.5147 37.1593 20.3101 36.8661 20.3414L35.5834 20.4786C35.0094 20.54 34.6474 21.1056 34.847 21.6291L34.8845 21.7277C35.0541 22.1728 35.5652 22.4009 36.0258 22.2371Z" fill="#5388EE"/>
<path d="M15.3703 22.3943L14.9748 22.1488C15.1292 22.0514 15.2541 21.9076 15.3227 21.7276L15.3602 21.6289C15.369 21.606 15.3752 21.5831 15.3818 21.5601L15.6289 21.7135L15.3703 22.3943Z" fill="#2254D3"/>
<path d="M14.1814 22.2369L13.3033 21.9245C12.9205 21.7883 12.6828 21.4178 12.7266 21.026L12.7522 20.798C12.7839 20.5145 13.0479 20.3099 13.3411 20.3412L14.6238 20.4784C15.1978 20.5398 15.5598 21.1054 15.3603 21.6289L15.3227 21.7276C15.1531 22.1727 14.642 22.4008 14.1814 22.2369Z" fill="#5388EE"/>
<path d="M15.7757 31.857C15.1432 31.857 14.5752 31.5953 14.1766 31.1797V33.0288C14.1766 33.457 14.5359 33.8041 14.9789 33.8041H17.386C17.8292 33.8041 18.1883 33.4569 18.1883 33.0288V31.857H15.7757Z" fill="#414042"/>
<path d="M34.3935 31.8566H31.9808V33.0285C31.9808 33.4568 32.34 33.8038 32.7831 33.8038H35.1902C35.6333 33.8038 35.9925 33.4566 35.9925 33.0285V31.1791C35.5941 31.5949 35.0261 31.8566 34.3935 31.8566Z" fill="#414042"/>
<path d="M15.7758 31.8568L34.3935 31.8565C35.5984 31.8565 36.5753 30.9127 36.5753 29.7484V25.9183C36.5753 25.3698 36.4092 24.8332 36.0973 24.3747L34.9467 22.6827H15.2226L14.0719 24.3747C13.7601 24.8332 13.594 25.3698 13.594 25.9183V29.7485C13.5938 30.9129 14.5707 31.8568 15.7758 31.8568Z" fill="#5388EE"/>
<path d="M36.5752 25.9185C36.5752 25.37 36.409 24.8334 36.0972 24.3749L34.9465 22.6829H34.6972L35.3701 23.6722C35.6819 24.1307 35.848 24.6673 35.848 25.2158V29.0459C35.848 30.2101 34.8712 31.154 33.6663 31.154L15.0485 31.1543C14.6325 31.1543 14.2452 31.0398 13.9144 30.8447C14.2975 31.451 14.9867 31.857 15.7758 31.857L34.3935 31.8567C35.5984 31.8567 36.5753 30.9128 36.5753 29.7486L36.5752 25.9185Z" fill="#2254D3"/>
<path d="M28.2817 28.7756H21.8874C21.5572 28.7756 21.2683 28.5605 21.1841 28.252L20.8404 26.9925C20.7188 26.5468 21.0666 26.1106 21.5437 26.1106H28.6254C29.1023 26.1106 29.4502 26.5468 29.3286 26.9925L28.9849 28.252C28.9007 28.5605 28.612 28.7756 28.2817 28.7756Z" fill="#414042"/>
<path d="M34.6989 23.5084L34.3026 22.8262C34.2511 22.7376 34.1541 22.6827 34.0489 22.6827H16.12C16.0149 22.6827 15.9178 22.7376 15.8664 22.8262L15.47 23.5084C15.2495 23.8879 15.4354 24.3679 15.8595 24.5142L18.8836 25.5578C19.0405 25.6121 19.2061 25.6398 19.3727 25.6398H30.7959C30.9626 25.6398 31.1281 25.6121 31.2851 25.5578L34.3091 24.5142C34.7336 24.3679 34.9194 23.8879 34.6989 23.5084Z" fill="#2254D3"/>
<path d="M31.0023 26.6982C31.5755 26.1512 32.8841 25.2777 35.4199 25.2346C35.5425 25.2325 35.6538 25.3068 35.6969 25.4179C35.8558 25.8283 36.1134 26.7997 35.1245 27.0652C34.1872 27.3167 32.1687 27.2326 31.1879 27.1723C30.9402 27.157 30.8257 26.8666 31.0023 26.6982Z" fill="white"/>
<path d="M35.6969 25.4179C35.6539 25.307 35.5426 25.2325 35.42 25.2346C35.3359 25.236 35.2566 25.2406 35.1752 25.2439C35.2526 25.6935 35.1861 26.2476 34.4759 26.4384C33.7019 26.6461 32.192 26.6249 31.1364 26.5772C31.0883 26.6188 31.0429 26.6596 31.0022 26.6984C30.8256 26.8667 30.9402 27.1571 31.1878 27.1723C32.1687 27.2326 34.1871 27.3169 35.1244 27.0652C36.1135 26.7997 35.8559 25.8283 35.6969 25.4179Z" fill="#F1F2F2"/>
<path d="M19.1668 26.6982C18.5936 26.1512 17.2849 25.2777 14.7491 25.2346C14.6265 25.2325 14.5153 25.3068 14.4722 25.4179C14.3132 25.8283 14.0556 26.7997 15.0446 27.0652C15.9818 27.3167 18.0004 27.2326 18.9812 27.1723C19.2289 27.157 19.3434 26.8666 19.1668 26.6982Z" fill="white"/>
<path d="M19.1667 26.6982C19.0253 26.5633 18.8386 26.4084 18.6002 26.251C18.6082 26.3931 18.5035 26.5347 18.3326 26.5453C17.3516 26.6056 15.3332 26.6899 14.3959 26.4382C14.3799 26.434 14.367 26.4279 14.3516 26.4233C14.4209 26.7011 14.615 26.9498 15.0445 27.065C15.9818 27.3166 18.0004 27.2324 18.9811 27.1721C19.2288 27.1569 19.3433 26.8666 19.1667 26.6982Z" fill="#F1F2F2"/>
<path d="M30.4749 16.2623H19.6942C18.4744 16.2623 17.3843 16.9975 16.9636 18.1039L15.2226 22.6828H34.9467L33.2056 18.1039C32.7848 16.9977 31.6947 16.2623 30.4749 16.2623Z" fill="#5388EE"/>
<path d="M16.3404 21.4721L17.5721 18.288C17.7846 17.7387 18.3277 17.3746 18.9345 17.3746H31.2346C31.8414 17.3746 32.3846 17.7387 32.5971 18.288L33.8287 21.4721C33.8999 21.6558 33.7592 21.8516 33.5563 21.8516H16.6128C16.4099 21.8516 16.2693 21.6558 16.3404 21.4721Z" fill="#F1F2F2"/>
<path d="M26.2259 18.4989C26.0653 18.4989 25.9302 18.373 25.9302 18.2179C25.9302 18.0627 26.0556 17.9368 26.2163 17.9368H26.2259C26.3865 17.9368 26.5168 18.0627 26.5168 18.2179C26.5168 18.373 26.3866 18.4989 26.2259 18.4989ZM25.0527 18.4989H18.9437C18.7832 18.4989 18.6528 18.373 18.6528 18.2179C18.6528 18.0627 18.7832 17.9368 18.9437 17.9368H25.0527C25.2133 17.9368 25.3436 18.0627 25.3436 18.2179C25.3436 18.373 25.2133 18.4989 25.0527 18.4989Z" fill="white"/>
<path d="M33.8287 21.4721L32.5971 18.288C32.3963 17.7689 31.9004 17.4158 31.3343 17.3782L32.3741 20.0667C32.4452 20.2504 32.3046 20.4462 32.1017 20.4462H16.7372L16.3404 21.4721C16.2693 21.6558 16.4099 21.8516 16.6128 21.8516H33.5562C33.7592 21.8516 33.8997 21.6558 33.8287 21.4721Z" fill="#E6E7E8"/>
<path d="M33.8287 21.4721L32.5971 18.288C32.4584 17.9297 32.1787 17.651 31.8329 17.4999C31.846 17.5279 31.8586 17.5562 31.8698 17.5852L33.1015 20.7694C33.1726 20.9531 33.032 21.1489 32.8291 21.1489H16.4655L16.3404 21.4721C16.2693 21.6558 16.4099 21.8516 16.6128 21.8516H33.5562C33.7592 21.8516 33.8997 21.6558 33.8287 21.4721Z" fill="#D1D3D4"/>
<path d="M32.161 30.7315H18.0081C17.762 30.7315 17.6272 30.4547 17.7838 30.2714L18.1905 29.7958C18.3287 29.6342 18.5342 29.5407 18.7512 29.5407H31.418C31.6349 29.5407 31.8405 29.6343 31.9787 29.7958L32.3854 30.2714C32.5419 30.4548 32.4069 30.7315 32.161 30.7315Z" fill="#414042"/>
<path d="M34.0157 30.9509C34.4812 30.9509 34.8585 30.5862 34.8585 30.1362C34.8585 29.6862 34.4812 29.3215 34.0157 29.3215C33.5503 29.3215 33.1729 29.6862 33.1729 30.1362C33.1729 30.5862 33.5503 30.9509 34.0157 30.9509Z" fill="#D1D3D4"/>
<path d="M34.0158 30.6322C34.2991 30.6322 34.5288 30.4101 34.5288 30.1362C34.5288 29.8623 34.2991 29.6402 34.0158 29.6402C33.7324 29.6402 33.5027 29.8623 33.5027 30.1362C33.5027 30.4101 33.7324 30.6322 34.0158 30.6322Z" fill="white"/>
<path d="M10.8035 16.3965C10.6426 16.3965 10.512 16.266 10.512 16.1051V11.4964C10.512 11.3355 10.6426 11.205 10.8035 11.205C10.9644 11.205 11.095 11.3355 11.095 11.4964V16.1051C11.095 16.2661 10.9644 16.3965 10.8035 16.3965Z" fill="#58595B"/>
<path d="M7.88891 16.3967C7.77888 16.3967 7.67337 16.334 7.62425 16.2275L6.16689 13.0762C6.09927 12.9302 6.1631 12.7569 6.30913 12.6893C6.45559 12.6221 6.62858 12.6854 6.69606 12.8315L8.15342 15.9828C8.22105 16.1288 8.15721 16.3021 8.01118 16.3697C7.9714 16.388 7.92986 16.3967 7.88891 16.3967Z" fill="#58595B"/>
<path d="M13.7181 16.3967C13.6771 16.3967 13.6356 16.388 13.5958 16.3697C13.4498 16.3021 13.3861 16.129 13.4536 15.9828L14.9109 12.8315C14.9786 12.6854 15.1518 12.6221 15.2979 12.6893C15.4439 12.7569 15.5076 12.9301 15.4401 13.0762L13.9827 16.2275C13.9335 16.3339 13.828 16.3967 13.7181 16.3967Z" fill="#58595B"/>
<path d="M4.38045 9.13272L4.49864 9.68331C4.62281 10.2617 5.07474 10.7135 5.65317 10.8378L6.20376 10.956C6.33652 10.9846 6.33652 11.1739 6.20376 11.2025L5.65317 11.3207C5.07474 11.4448 4.62295 11.8968 4.49864 12.4752L4.38045 13.0258C4.35188 13.1585 4.16257 13.1585 4.13401 13.0258L4.01581 12.4752C3.89165 11.8968 3.43972 11.445 2.86129 11.3207L2.3107 11.2025C2.17793 11.1739 2.17793 10.9846 2.3107 10.956L2.86129 10.8378C3.43972 10.7137 3.8915 10.2617 4.01581 9.68331L4.13401 9.13272C4.16243 8.99995 4.35188 8.99995 4.38045 9.13272Z" fill="#FFC91D"/>
<path d="M17.8264 10.6316L17.9109 11.0253C17.9997 11.4389 18.3229 11.762 18.7365 11.8509L19.1301 11.9354C19.225 11.9558 19.225 12.0912 19.1301 12.1116L18.7365 12.1961C18.3229 12.2849 17.9998 12.6081 17.9109 13.0217L17.8264 13.4154C17.806 13.5102 17.6706 13.5102 17.6502 13.4154L17.5657 13.0217C17.4769 12.6081 17.1537 12.285 16.7401 12.1961L16.3464 12.1116C16.2515 12.0912 16.2515 11.9558 16.3464 11.9354L16.7401 11.8509C17.1537 11.7621 17.4768 11.4389 17.5657 11.0253L17.6502 10.6316C17.6704 10.5368 17.806 10.5368 17.8264 10.6316Z" fill="#FFC91D"/>
<path d="M21.1366 26.8951C20.5552 26.3137 19.6126 26.3136 19.0311 26.8949L20.152 25.7741C20.7335 25.1926 20.7335 24.25 20.152 23.6686C19.5705 23.0871 18.6279 23.0871 18.0465 23.6686L16.7075 25.0075L19.0992 22.6158C19.6807 22.0343 19.6807 21.0917 19.0992 20.5104C18.5177 19.9289 17.5751 19.9289 16.9937 20.5104L14.6021 22.902L20.3894 17.1147C20.9709 16.5332 20.9709 15.5906 20.3894 15.0092C19.8079 14.4279 18.8653 14.4278 18.2839 15.0092L10.6205 22.6727L12.0608 19.2713C12.396 18.4798 12.0164 17.5674 11.2188 17.247C10.4585 16.9417 9.59221 17.2868 9.25046 18.0315L7.31187 22.2534C6.68418 23.6204 6.29448 25.0843 6.15924 26.5825L5.91032 29.3395L4.52597 30.7239C4.24134 31.0085 4.24134 31.4698 4.52597 31.7544L9.25891 36.4875C9.54353 36.7721 10.0049 36.7721 10.2894 36.4875L12.0007 34.7762C14.6633 34.3011 16.7181 33.4191 18.6307 31.5066L19.0418 31.0955C19.0418 31.0955 19.0418 31.0955 19.0419 31.0954L21.1367 29.0005C21.7181 28.4192 21.7181 27.4764 21.1366 26.8951Z" fill="#FCC4AE"/>
<path d="M20.0191 16.8127L19.5582 17.2735C19.4444 17.3873 19.2599 17.3873 19.1461 17.2735L18.1249 16.2522C18.0111 16.1384 18.0111 15.9539 18.1249 15.8401L18.5857 15.3792C18.8704 15.0946 19.3316 15.0946 19.6162 15.3792L20.0192 15.7822C20.3035 16.0667 20.3035 16.5281 20.0191 16.8127Z" fill="#FFD2C0"/>
<path d="M11.5888 19.0747L11.3282 19.6721C11.2638 19.8196 11.0921 19.8871 10.9445 19.8228L9.62063 19.2455C9.47315 19.1811 9.40567 19.0094 9.46994 18.8618L9.73052 18.2644C9.89141 17.8956 10.3209 17.727 10.6898 17.8877L11.2121 18.1155C11.5811 18.2764 11.7497 18.7059 11.5888 19.0747Z" fill="#FFD2C0"/>
<path d="M21.5176 27.5496C21.4513 27.7893 21.325 28.0158 21.1365 28.2042L19.0417 30.299L18.6306 30.7101C16.7181 32.6227 14.6634 33.5047 12.0006 33.9798L10.1723 35.808C9.95242 36.0279 9.59581 36.0279 9.37604 35.808L4.40889 30.8409C4.18898 31.0608 4.18898 31.4173 4.40889 31.6372L9.37604 36.6043C9.59595 36.8242 9.95242 36.8242 10.1723 36.6043L12.0006 34.7761C14.6632 34.301 16.718 33.419 18.6306 31.5065L19.0417 31.0953L21.1365 29.0005C21.5296 28.6075 21.6559 28.0496 21.5176 27.5496Z" fill="#F2AD97"/>
<path d="M31.7425 9.11051C31.7425 5.57614 28.7938 2.73043 25.2222 2.89956C22.0937 3.04771 19.5091 5.59433 19.3183 8.72056C19.176 11.052 20.3192 13.1274 22.1063 14.3056C23.2885 15.0849 24.2867 16.1122 24.9948 17.3385L25.1599 17.6246C25.3155 17.8942 25.7045 17.8942 25.8602 17.6246L26.0094 17.3664C26.7033 16.1644 27.6524 15.1163 28.8277 14.3782C30.5785 13.2784 31.7425 11.3308 31.7425 9.11051Z" fill="url(#paint0_linear_1319_2200)"/>
<path d="M26.4373 11.1152V10.2215H27.1748V7.63413H26.4373V6.74042H28.981V7.63413H28.2372V10.2215H28.981V11.1152H26.4373Z" fill="white"/>
<path d="M21.6292 11.1152L23.3603 6.74042H24.2603L25.979 11.1152H24.904L24.079 8.89657C24.0457 8.80907 24.0124 8.71533 23.979 8.61533C23.9457 8.51534 23.9124 8.41326 23.879 8.3091C23.8457 8.20077 23.8124 8.09661 23.7791 7.99661C23.7499 7.89245 23.7249 7.79662 23.7041 7.70912L23.8915 7.70287C23.8665 7.80704 23.8374 7.90911 23.8041 8.00911C23.7749 8.10911 23.7436 8.2091 23.7103 8.3091C23.6811 8.40492 23.6478 8.50284 23.6103 8.60283C23.5728 8.69866 23.5374 8.79866 23.5041 8.90282L22.6791 11.1152H21.6292ZM22.4541 10.2778L22.7853 9.47779H24.7978L25.1227 10.2778H22.4541Z" fill="white"/>
<defs>
<linearGradient id="paint0_linear_1319_2200" x1="24.4565" y1="3.29814" x2="26.988" y2="17.0728" gradientUnits="userSpaceOnUse">
<stop stop-color="#FF7044"/>
<stop offset="1" stop-color="#F92814"/>
</linearGradient>
</defs>
</svg>
