<svg width="41" height="40" viewBox="0 0 41 40" fill="none" xmlns="http://www.w3.org/2000/svg">
<path fill-rule="evenodd" clip-rule="evenodd" d="M23.9001 9.00022C23.7612 9.00003 23.6168 9 23.4667 9L18.1334 9C17.9833 9 17.8389 9.00003 17.7 9.00022C17.3022 10.9592 15.7592 12.5022 13.8003 12.8999C13.8001 13.0389 13.8 13.1832 13.8 13.3333C13.8 13.4834 13.8001 13.6278 13.8003 13.7667C15.7592 14.1645 17.3022 15.7075 17.7 17.6665C17.8389 17.6666 17.9833 17.6667 18.1334 17.6667H23.4667C23.6168 17.6667 23.7612 17.6666 23.9001 17.6665C24.2978 15.7075 25.8409 14.1645 27.7998 13.7667C27.8 13.6278 27.8001 13.4835 27.8001 13.3333C27.8001 13.1832 27.8 13.0389 27.7998 12.8999C25.8409 12.5022 24.2979 10.9592 23.9001 9.00022ZM24.7061 7.00436C24.34 6.99998 23.9499 6.99999 23.536 7L18.064 7C17.6502 6.99999 17.2601 6.99998 16.894 7.00436C16.8631 7.00148 16.8317 7 16.8 7C16.7582 7 16.7169 7.00257 16.6764 7.00757C16.0727 7.01829 15.5381 7.04416 15.0741 7.10655C14.237 7.21909 13.4813 7.46665 12.874 8.07395C12.2667 8.68124 12.0191 9.43697 11.9066 10.274C11.8442 10.7381 11.8183 11.2727 11.8076 11.8764C11.8026 11.9169 11.8 11.9581 11.8 12C11.8 12.0317 11.8015 12.063 11.8044 12.094C11.8 12.46 11.8 12.8501 11.8 13.264V13.4027C11.8 13.8165 11.8 14.2066 11.8044 14.5727C11.8015 14.6036 11.8 14.635 11.8 14.6667C11.8 14.7085 11.8026 14.7498 11.8076 14.7903C11.8183 15.394 11.8442 15.9286 11.9066 16.3926C12.0191 17.2297 12.2667 17.9854 12.874 18.5927C13.4813 19.2 14.237 19.4476 15.0741 19.5601C15.5381 19.6225 16.0727 19.6484 16.6764 19.6591C16.7169 19.6641 16.7582 19.6667 16.8 19.6667C16.8317 19.6667 16.8631 19.6652 16.894 19.6623C17.2601 19.6667 17.6502 19.6667 18.0641 19.6667H23.5361C23.9499 19.6667 24.34 19.6667 24.7061 19.6623C24.737 19.6652 24.7684 19.6667 24.8 19.6667C24.8419 19.6667 24.8832 19.6641 24.9237 19.6591C25.5274 19.6484 26.062 19.6225 26.526 19.5601C27.3631 19.4476 28.1188 19.2 28.7261 18.5927C29.3334 17.9854 29.581 17.2297 29.6935 16.3926C29.7559 15.9286 29.7818 15.394 29.7925 14.7903C29.7975 14.7498 29.8001 14.7085 29.8001 14.6667C29.8001 14.635 29.7986 14.6036 29.7957 14.5727C29.8001 14.2066 29.8001 13.8165 29.8001 13.4027V13.264C29.8001 12.8502 29.8001 12.46 29.7957 12.094C29.7986 12.063 29.8001 12.0317 29.8001 12C29.8001 11.9581 29.7975 11.9169 29.7925 11.8764C29.7818 11.2727 29.7559 10.7381 29.6935 10.274C29.581 9.43697 29.3334 8.68124 28.7261 8.07394C28.1188 7.46665 27.3631 7.21909 26.526 7.10655C26.062 7.04416 25.5274 7.01829 24.9237 7.00757C24.8832 7.00257 24.8419 7 24.8 7C24.7684 7 24.737 7.00148 24.7061 7.00436ZM25.9922 9.05862C26.2959 9.86389 26.9362 10.5041 27.7414 10.8079C27.7327 10.7146 27.7228 10.6257 27.7113 10.5405C27.6286 9.92524 27.4856 9.66191 27.3119 9.48816C27.1381 9.3144 26.8748 9.17144 26.2595 9.08872C26.1744 9.07727 26.0854 9.0673 25.9922 9.05862ZM27.7414 15.8588C26.9362 16.1625 26.2959 16.8028 25.9922 17.6081C26.0854 17.5994 26.1744 17.5894 26.2595 17.578C26.8748 17.4952 27.1381 17.3523 27.3119 17.1785C27.4856 17.0048 27.6286 16.7414 27.7113 16.1261C27.7228 16.041 27.7328 15.9521 27.7414 15.8588ZM15.6079 17.6081C15.3042 16.8028 14.6639 16.1625 13.8587 15.8588C13.8673 15.9521 13.8773 16.041 13.8888 16.1261C13.9715 16.7414 14.1144 17.0048 14.2882 17.1785C14.462 17.3523 14.7253 17.4952 15.3406 17.578C15.4257 17.5894 15.5147 17.5994 15.6079 17.6081ZM13.8587 10.8079C14.6639 10.5041 15.3042 9.8639 15.6079 9.05862C15.5147 9.0673 15.4257 9.07727 15.3406 9.08872C14.7253 9.17144 14.462 9.3144 14.2882 9.48816C14.1144 9.66191 13.9715 9.92524 13.8888 10.5405C13.8773 10.6257 13.8673 10.7146 13.8587 10.8079ZM20.8 13C20.616 13 20.4667 13.1492 20.4667 13.3333C20.4667 13.5174 20.616 13.6667 20.8 13.6667C20.9841 13.6667 21.1334 13.5174 21.1334 13.3333C21.1334 13.1492 20.9841 13 20.8 13ZM18.4667 13.3333C18.4667 12.0447 19.5114 11 20.8 11C22.0887 11 23.1334 12.0447 23.1334 13.3333C23.1334 14.622 22.0887 15.6667 20.8 15.6667C19.5114 15.6667 18.4667 14.622 18.4667 13.3333ZM16.3786 23.2642C18.8664 22.7822 21.5295 22.8904 23.6844 24.1757C23.9871 24.3562 24.2708 24.5812 24.5183 24.8592C25.0195 25.4221 25.2783 26.1218 25.2905 26.8232C25.5456 26.6587 25.801 26.476 26.0605 26.28L28.4701 24.4598C29.6762 23.5487 31.4291 23.5485 32.6353 24.4593C33.7499 25.3009 34.1943 26.8113 33.3964 28.0903C32.8293 28.9993 31.9752 30.2566 31.1061 31.0616C30.2276 31.8753 28.9772 32.5594 28.0314 33.016C26.8827 33.5704 25.6421 33.8769 24.4358 34.0722C21.9702 34.4713 19.4046 34.4102 16.9667 33.9079C15.7208 33.6513 14.4261 33.5178 13.1466 33.5178H10.1334C9.5811 33.5178 9.13338 33.0701 9.13338 32.5178C9.13338 31.9656 9.5811 31.5178 10.1334 31.5178H13.1466C14.5628 31.5178 15.9927 31.6653 17.3703 31.9491C19.573 32.4029 21.8935 32.4576 24.1162 32.0979C25.2214 31.9189 26.2535 31.6533 27.162 31.2148C28.0732 30.775 29.0977 30.1957 29.7471 29.5942C30.4038 28.986 31.1388 27.9305 31.6995 27.0317C31.8688 26.7604 31.8454 26.3689 31.4302 26.0554C30.9372 25.6832 30.1685 25.6833 29.6756 26.0556L27.266 27.8758C26.3041 28.6025 25.1202 29.3798 23.6517 29.6141C23.5035 29.6377 23.3491 29.6593 23.189 29.6784C23.1126 29.6922 23.0331 29.7013 22.951 29.7044C22.2012 29.7789 21.333 29.7962 20.3751 29.7057C19.8252 29.6538 19.4216 29.166 19.4735 28.6162C19.5254 28.0663 20.0132 27.6627 20.5631 27.7146C21.3997 27.7936 22.1502 27.7762 22.787 27.7108C22.7999 27.7095 22.8128 27.7081 22.8256 27.7067C22.8522 27.6913 22.8928 27.6631 22.9462 27.6166C23.3721 27.2448 23.4102 26.6222 23.0246 26.1891C22.9268 26.0793 22.8065 25.9808 22.6599 25.8934C21.085 24.9541 18.9817 24.7971 16.759 25.2277C14.549 25.6559 12.3533 26.6422 10.7119 27.8063C10.2614 28.1257 9.63716 28.0195 9.31768 27.569C8.9982 27.1185 9.10441 26.4943 9.55491 26.1749C11.4194 24.8526 13.8782 23.7486 16.3786 23.2642Z" fill="#0068FF"/>
</svg>
